<svg xmlns="http://www.w3.org/2000/svg" viewBox="0 0 640 360" preserveAspectRatio="xMidYMid slice">
<defs>
<radialGradient id="bg" cx="50%" cy="20%" r="90%">
<stop offset="0%" stop-color="#0a1326"/><stop offset="55%" stop-color="#070a14"/><stop offset="100%" stop-color="#04060c"/>
</radialGradient>
<radialGradient id="blue" cx="35%" cy="12%" r="55%"><stop offset="0%" stop-color="#2b6fd6" stop-opacity="0.45"/><stop offset="100%" stop-color="#2b6fd6" stop-opacity="0"/></radialGradient>
<radialGradient id="orange" cx="58%" cy="92%" r="65%"><stop offset="0%" stop-color="#ff7a1f" stop-opacity="0.5"/><stop offset="100%" stop-color="#ff7a1f" stop-opacity="0"/></radialGradient>
<filter id="g" x="-200%" y="-200%" width="500%" height="500%"><feGaussianBlur stdDeviation="1.1"/></filter>
</defs>
<rect width="640" height="360" fill="url(#bg)"/>
<rect width="640" height="360" fill="url(#blue)"/>
<rect width="640" height="360" fill="url(#orange)"/>
<g><line x1="-27.5" y1="11.6" x2="-5.2" y2="59.5" stroke="#ff7a33" stroke-opacity="0.13" stroke-width="0.8"/><line x1="-27.5" y1="11.6" x2="53.9" y2="52.1" stroke="#ff7a33" stroke-opacity="0.13" stroke-width="0.8"/><line x1="88.1" y1="-6.0" x2="164.9" y2="10.4" stroke="#ff7a33" stroke-opacity="0.10" stroke-width="0.8"/><line x1="88.1" y1="-6.0" x2="53.9" y2="52.1" stroke="#ff7a33" stroke-opacity="0.12" stroke-width="0.8"/><line x1="88.1" y1="-6.0" x2="133.0" y2="86.3" stroke="#ff7a33" stroke-opacity="0.13" stroke-width="0.8"/><line x1="164.9" y1="10.4" x2="259.4" y2="5.8" stroke="#ff7a33" stroke-opacity="0.11" stroke-width="0.8"/><line x1="164.9" y1="10.4" x2="133.0" y2="86.3" stroke="#ff7a33" stroke-opacity="0.14" stroke-width="0.8"/><line x1="259.4" y1="5.8" x2="299.8" y2="-10.5" stroke="#ff7a33" stroke-opacity="0.10" stroke-width="0.8"/><line x1="259.4" y1="5.8" x2="263.6" y2="72.0" stroke="#ff7a33" stroke-opacity="0.13" stroke-width="0.8"/><line x1="259.4" y1="5.8" x2="327.4" y2="83.3" stroke="#ff7a33" stroke-opacity="0.14" stroke-width="0.8"/><line x1="299.8" y1="-10.5" x2="263.6" y2="72.0" stroke="#ff7a33" stroke-opacity="0.13" stroke-width="0.8"/><line x1="299.8" y1="-10.5" x2="327.4" y2="83.3" stroke="#ff7a33" stroke-opacity="0.13" stroke-width="0.8"/><line x1="420.4" y1="-15.9" x2="466.4" y2="6.5" stroke="#ff7a33" stroke-opacity="0.10" stroke-width="0.8"/><line x1="420.4" y1="-15.9" x2="373.4" y2="73.8" stroke="#ff7a33" stroke-opacity="0.12" stroke-width="0.8"/><line x1="420.4" y1="-15.9" x2="484.6" y2="70.0" stroke="#ff7a33" stroke-opacity="0.12" stroke-width="0.8"/><line x1="466.4" y1="6.5" x2="567.1" y2="19.9" stroke="#ff7a33" stroke-opacity="0.11" stroke-width="0.8"/><line x1="466.4" y1="6.5" x2="484.6" y2="70.0" stroke="#ff7a33" stroke-opacity="0.13" stroke-width="0.8"/><line x1="567.1" y1="19.9" x2="646.5" y2="15.5" stroke="#ff7a33" stroke-opacity="0.11" stroke-width="0.8"/><line x1="567.1" y1="19.9" x2="484.6" y2="70.0" stroke="#ff7a33" stroke-opacity="0.14" stroke-width="0.8"/><line x1="567.1" y1="19.9" x2="572.7" y2="55.2" stroke="#ff7a33" stroke-opacity="0.13" stroke-width="0.8"/><line x1="567.1" y1="19.9" x2="647.0" y2="63.6" stroke="#ff7a33" stroke-opacity="0.13" stroke-width="0.8"/><line x1="567.1" y1="19.9" x2="539.9" y2="123.5" stroke="#ff7a33" stroke-opacity="0.16" stroke-width="0.8"/><line x1="646.5" y1="15.5" x2="572.7" y2="55.2" stroke="#ff7a33" stroke-opacity="0.13" stroke-width="0.8"/><line x1="646.5" y1="15.5" x2="647.0" y2="63.6" stroke="#ff7a33" stroke-opacity="0.13" stroke-width="0.8"/><line x1="-5.2" y1="59.5" x2="53.9" y2="52.1" stroke="#ff7a33" stroke-opacity="0.15" stroke-width="0.8"/><line x1="-5.2" y1="59.5" x2="-5.9" y2="123.3" stroke="#ff7a33" stroke-opacity="0.18" stroke-width="0.8"/><line x1="-5.2" y1="59.5" x2="67.8" y2="127.9" stroke="#ff7a33" stroke-opacity="0.18" stroke-width="0.8"/><line x1="53.9" y1="52.1" x2="133.0" y2="86.3" stroke="#ff7a33" stroke-opacity="0.16" stroke-width="0.8"/><line x1="53.9" y1="52.1" x2="-5.9" y2="123.3" stroke="#ff7a33" stroke-opacity="0.17" stroke-width="0.8"/><line x1="53.9" y1="52.1" x2="67.8" y2="127.9" stroke="#ff7a33" stroke-opacity="0.17" stroke-width="0.8"/><line x1="133.0" y1="86.3" x2="67.8" y2="127.9" stroke="#ff7a33" stroke-opacity="0.19" stroke-width="0.8"/><line x1="133.0" y1="86.3" x2="178.0" y2="134.6" stroke="#ff7a33" stroke-opacity="0.19" stroke-width="0.8"/><line x1="263.6" y1="72.0" x2="327.4" y2="83.3" stroke="#ff7a33" stroke-opacity="0.16" stroke-width="0.8"/><line x1="263.6" y1="72.0" x2="178.0" y2="134.6" stroke="#ff7a33" stroke-opacity="0.19" stroke-width="0.8"/><line x1="263.6" y1="72.0" x2="230.8" y2="153.3" stroke="#ff7a33" stroke-opacity="0.19" stroke-width="0.8"/><line x1="263.6" y1="72.0" x2="308.1" y2="148.6" stroke="#ff7a33" stroke-opacity="0.19" stroke-width="0.8"/><line x1="327.4" y1="83.3" x2="373.4" y2="73.8" stroke="#ff7a33" stroke-opacity="0.17" stroke-width="0.8"/><line x1="327.4" y1="83.3" x2="308.1" y2="148.6" stroke="#ff7a33" stroke-opacity="0.20" stroke-width="0.8"/><line x1="327.4" y1="83.3" x2="372.7" y2="127.9" stroke="#ff7a33" stroke-opacity="0.19" stroke-width="0.8"/><line x1="373.4" y1="73.8" x2="308.1" y2="148.6" stroke="#ff7a33" stroke-opacity="0.19" stroke-width="0.8"/><line x1="373.4" y1="73.8" x2="372.7" y2="127.9" stroke="#ff7a33" stroke-opacity="0.18" stroke-width="0.8"/><line x1="484.6" y1="70.0" x2="572.7" y2="55.2" stroke="#ff7a33" stroke-opacity="0.15" stroke-width="0.8"/><line x1="484.6" y1="70.0" x2="503.8" y2="144.0" stroke="#ff7a33" stroke-opacity="0.19" stroke-width="0.8"/><line x1="484.6" y1="70.0" x2="539.9" y2="123.5" stroke="#ff7a33" stroke-opacity="0.18" stroke-width="0.8"/><line x1="572.7" y1="55.2" x2="647.0" y2="63.6" stroke="#ff7a33" stroke-opacity="0.15" stroke-width="0.8"/><line x1="572.7" y1="55.2" x2="539.9" y2="123.5" stroke="#ff7a33" stroke-opacity="0.17" stroke-width="0.8"/><line x1="647.0" y1="63.6" x2="660.5" y2="161.8" stroke="#ff7a33" stroke-opacity="0.19" stroke-width="0.8"/><line x1="-5.9" y1="123.3" x2="67.8" y2="127.9" stroke="#ff7a33" stroke-opacity="0.20" stroke-width="0.8"/><line x1="-5.9" y1="123.3" x2="-11.6" y2="222.0" stroke="#ff7a33" stroke-opacity="0.24" stroke-width="0.8"/><line x1="67.8" y1="127.9" x2="93.5" y2="202.8" stroke="#ff7a33" stroke-opacity="0.24" stroke-width="0.8"/><line x1="178.0" y1="134.6" x2="230.8" y2="153.3" stroke="#ff7a33" stroke-opacity="0.22" stroke-width="0.8"/><line x1="178.0" y1="134.6" x2="174.6" y2="206.5" stroke="#ff7a33" stroke-opacity="0.24" stroke-width="0.8"/><line x1="178.0" y1="134.6" x2="228.5" y2="217.7" stroke="#ff7a33" stroke-opacity="0.25" stroke-width="0.8"/><line x1="230.8" y1="153.3" x2="308.1" y2="148.6" stroke="#ff7a33" stroke-opacity="0.23" stroke-width="0.8"/><line x1="230.8" y1="153.3" x2="174.6" y2="206.5" stroke="#ff7a33" stroke-opacity="0.25" stroke-width="0.8"/><line x1="230.8" y1="153.3" x2="228.5" y2="217.7" stroke="#ff7a33" stroke-opacity="0.25" stroke-width="0.8"/><line x1="230.8" y1="153.3" x2="299.6" y2="206.9" stroke="#ff7a33" stroke-opacity="0.25" stroke-width="0.8"/><line x1="308.1" y1="148.6" x2="372.7" y2="127.9" stroke="#ff7a33" stroke-opacity="0.22" stroke-width="0.8"/><line x1="308.1" y1="148.6" x2="228.5" y2="217.7" stroke="#ff7a33" stroke-opacity="0.25" stroke-width="0.8"/><line x1="308.1" y1="148.6" x2="299.6" y2="206.9" stroke="#ff7a33" stroke-opacity="0.25" stroke-width="0.8"/><line x1="372.7" y1="127.9" x2="299.6" y2="206.9" stroke="#ff7a33" stroke-opacity="0.24" stroke-width="0.8"/><line x1="372.7" y1="127.9" x2="412.5" y2="217.2" stroke="#ff7a33" stroke-opacity="0.24" stroke-width="0.8"/><line x1="503.8" y1="144.0" x2="539.9" y2="123.5" stroke="#ff7a33" stroke-opacity="0.21" stroke-width="0.8"/><line x1="503.8" y1="144.0" x2="471.5" y2="202.3" stroke="#ff7a33" stroke-opacity="0.24" stroke-width="0.8"/><line x1="503.8" y1="144.0" x2="534.6" y2="210.4" stroke="#ff7a33" stroke-opacity="0.25" stroke-width="0.8"/><line x1="539.9" y1="123.5" x2="471.5" y2="202.3" stroke="#ff7a33" stroke-opacity="0.24" stroke-width="0.8"/><line x1="539.9" y1="123.5" x2="534.6" y2="210.4" stroke="#ff7a33" stroke-opacity="0.24" stroke-width="0.8"/><line x1="660.5" y1="161.8" x2="620.5" y2="213.2" stroke="#ff7a33" stroke-opacity="0.26" stroke-width="0.8"/><line x1="-11.6" y1="222.0" x2="93.5" y2="202.8" stroke="#ff7a33" stroke-opacity="0.28" stroke-width="0.8"/><line x1="-11.6" y1="222.0" x2="7.4" y2="287.0" stroke="#ff7a33" stroke-opacity="0.31" stroke-width="0.8"/><line x1="93.5" y1="202.8" x2="174.6" y2="206.5" stroke="#ff7a33" stroke-opacity="0.27" stroke-width="0.8"/><line x1="93.5" y1="202.8" x2="104.3" y2="309.5" stroke="#ff7a33" stroke-opacity="0.31" stroke-width="0.8"/><line x1="174.6" y1="206.5" x2="228.5" y2="217.7" stroke="#ff7a33" stroke-opacity="0.28" stroke-width="0.8"/><line x1="174.6" y1="206.5" x2="181.7" y2="272.4" stroke="#ff7a33" stroke-opacity="0.30" stroke-width="0.8"/><line x1="174.6" y1="206.5" x2="222.8" y2="294.2" stroke="#ff7a33" stroke-opacity="0.31" stroke-width="0.8"/><line x1="228.5" y1="217.7" x2="299.6" y2="206.9" stroke="#ff7a33" stroke-opacity="0.28" stroke-width="0.8"/><line x1="228.5" y1="217.7" x2="181.7" y2="272.4" stroke="#ff7a33" stroke-opacity="0.30" stroke-width="0.8"/><line x1="228.5" y1="217.7" x2="222.8" y2="294.2" stroke="#ff7a33" stroke-opacity="0.31" stroke-width="0.8"/><line x1="299.6" y1="206.9" x2="332.3" y2="269.0" stroke="#ff7a33" stroke-opacity="0.30" stroke-width="0.8"/><line x1="412.5" y1="217.2" x2="471.5" y2="202.3" stroke="#ff7a33" stroke-opacity="0.27" stroke-width="0.8"/><line x1="412.5" y1="217.2" x2="332.3" y2="269.0" stroke="#ff7a33" stroke-opacity="0.30" stroke-width="0.8"/><line x1="412.5" y1="217.2" x2="409.6" y2="305.6" stroke="#ff7a33" stroke-opacity="0.32" stroke-width="0.8"/><line x1="412.5" y1="217.2" x2="474.6" y2="282.1" stroke="#ff7a33" stroke-opacity="0.31" stroke-width="0.8"/><line x1="471.5" y1="202.3" x2="534.6" y2="210.4" stroke="#ff7a33" stroke-opacity="0.27" stroke-width="0.8"/><line x1="471.5" y1="202.3" x2="474.6" y2="282.1" stroke="#ff7a33" stroke-opacity="0.30" stroke-width="0.8"/><line x1="471.5" y1="202.3" x2="539.3" y2="271.5" stroke="#ff7a33" stroke-opacity="0.30" stroke-width="0.8"/><line x1="534.6" y1="210.4" x2="620.5" y2="213.2" stroke="#ff7a33" stroke-opacity="0.28" stroke-width="0.8"/><line x1="534.6" y1="210.4" x2="474.6" y2="282.1" stroke="#ff7a33" stroke-opacity="0.31" stroke-width="0.8"/><line x1="534.6" y1="210.4" x2="539.3" y2="271.5" stroke="#ff7a33" stroke-opacity="0.30" stroke-width="0.8"/><line x1="620.5" y1="213.2" x2="539.3" y2="271.5" stroke="#ff7a33" stroke-opacity="0.30" stroke-width="0.8"/><line x1="620.5" y1="213.2" x2="626.0" y2="281.6" stroke="#ff7a33" stroke-opacity="0.31" stroke-width="0.8"/><line x1="7.4" y1="287.0" x2="104.3" y2="309.5" stroke="#ff7a33" stroke-opacity="0.35" stroke-width="0.8"/><line x1="7.4" y1="287.0" x2="-21.1" y2="377.4" stroke="#ff7a33" stroke-opacity="0.38" stroke-width="0.8"/><line x1="7.4" y1="287.0" x2="60.2" y2="347.5" stroke="#ff7a33" stroke-opacity="0.36" stroke-width="0.8"/><line x1="104.3" y1="309.5" x2="181.7" y2="272.4" stroke="#ff7a33" stroke-opacity="0.34" stroke-width="0.8"/><line x1="104.3" y1="309.5" x2="60.2" y2="347.5" stroke="#ff7a33" stroke-opacity="0.37" stroke-width="0.8"/><line x1="104.3" y1="309.5" x2="185.8" y2="366.5" stroke="#ff7a33" stroke-opacity="0.38" stroke-width="0.8"/><line x1="181.7" y1="272.4" x2="222.8" y2="294.2" stroke="#ff7a33" stroke-opacity="0.34" stroke-width="0.8"/><line x1="181.7" y1="272.4" x2="185.8" y2="366.5" stroke="#ff7a33" stroke-opacity="0.37" stroke-width="0.8"/><line x1="181.7" y1="272.4" x2="257.0" y2="349.8" stroke="#ff7a33" stroke-opacity="0.36" stroke-width="0.8"/><line x1="222.8" y1="294.2" x2="185.8" y2="366.5" stroke="#ff7a33" stroke-opacity="0.38" stroke-width="0.8"/><line x1="222.8" y1="294.2" x2="257.0" y2="349.8" stroke="#ff7a33" stroke-opacity="0.37" stroke-width="0.8"/><line x1="332.3" y1="269.0" x2="409.6" y2="305.6" stroke="#ff7a33" stroke-opacity="0.34" stroke-width="0.8"/><line x1="332.3" y1="269.0" x2="324.4" y2="343.7" stroke="#ff7a33" stroke-opacity="0.36" stroke-width="0.8"/><line x1="332.3" y1="269.0" x2="385.9" y2="342.5" stroke="#ff7a33" stroke-opacity="0.35" stroke-width="0.8"/><line x1="409.6" y1="305.6" x2="474.6" y2="282.1" stroke="#ff7a33" stroke-opacity="0.34" stroke-width="0.8"/><line x1="409.6" y1="305.6" x2="324.4" y2="343.7" stroke="#ff7a33" stroke-opacity="0.37" stroke-width="0.8"/><line x1="409.6" y1="305.6" x2="385.9" y2="342.5" stroke="#ff7a33" stroke-opacity="0.37" stroke-width="0.8"/><line x1="409.6" y1="305.6" x2="460.6" y2="378.8" stroke="#ff7a33" stroke-opacity="0.39" stroke-width="0.8"/><line x1="474.6" y1="282.1" x2="539.3" y2="271.5" stroke="#ff7a33" stroke-opacity="0.33" stroke-width="0.8"/><line x1="474.6" y1="282.1" x2="385.9" y2="342.5" stroke="#ff7a33" stroke-opacity="0.36" stroke-width="0.8"/><line x1="474.6" y1="282.1" x2="460.6" y2="378.8" stroke="#ff7a33" stroke-opacity="0.38" stroke-width="0.8"/><line x1="539.3" y1="271.5" x2="626.0" y2="281.6" stroke="#ff7a33" stroke-opacity="0.33" stroke-width="0.8"/><line x1="539.3" y1="271.5" x2="575.6" y2="354.9" stroke="#ff7a33" stroke-opacity="0.36" stroke-width="0.8"/><line x1="626.0" y1="281.6" x2="575.6" y2="354.9" stroke="#ff7a33" stroke-opacity="0.37" stroke-width="0.8"/><line x1="626.0" y1="281.6" x2="666.2" y2="370.7" stroke="#ff7a33" stroke-opacity="0.37" stroke-width="0.8"/><line x1="-21.1" y1="377.4" x2="60.2" y2="347.5" stroke="#ff7a33" stroke-opacity="0.40" stroke-width="0.8"/><line x1="185.8" y1="366.5" x2="257.0" y2="349.8" stroke="#ff7a33" stroke-opacity="0.40" stroke-width="0.8"/><line x1="257.0" y1="349.8" x2="324.4" y2="343.7" stroke="#ff7a33" stroke-opacity="0.39" stroke-width="0.8"/><line x1="324.4" y1="343.7" x2="385.9" y2="342.5" stroke="#ff7a33" stroke-opacity="0.39" stroke-width="0.8"/><line x1="385.9" y1="342.5" x2="460.6" y2="378.8" stroke="#ff7a33" stroke-opacity="0.40" stroke-width="0.8"/><line x1="575.6" y1="354.9" x2="666.2" y2="370.7" stroke="#ff7a33" stroke-opacity="0.40" stroke-width="0.8"/></g>
<g><circle cx="-27.5" cy="11.6" r="1.2" fill="#5ea0ff" fill-opacity="0.27" filter="url(#g)"/><circle cx="88.1" cy="-6.0" r="1.7" fill="#ffae5c" fill-opacity="0.24" filter="url(#g)"/><circle cx="164.9" cy="10.4" r="3.4" fill="#5ea0ff" fill-opacity="0.27" filter="url(#g)"/><circle cx="259.4" cy="5.8" r="1.7" fill="#ffae5c" fill-opacity="0.26" filter="url(#g)"/><circle cx="299.8" cy="-10.5" r="1.9" fill="#ffae5c" fill-opacity="0.23" filter="url(#g)"/><circle cx="420.4" cy="-15.9" r="2.4" fill="#ffae5c" fill-opacity="0.22" filter="url(#g)"/><circle cx="466.4" cy="6.5" r="1.4" fill="#5ea0ff" fill-opacity="0.26" filter="url(#g)"/><circle cx="567.1" cy="19.9" r="2.2" fill="#ffae5c" fill-opacity="0.28" filter="url(#g)"/><circle cx="646.5" cy="15.5" r="2.7" fill="#ffae5c" fill-opacity="0.28" filter="url(#g)"/><circle cx="-5.2" cy="59.5" r="1.6" fill="#ffae5c" fill-opacity="0.35" filter="url(#g)"/><circle cx="53.9" cy="52.1" r="2.9" fill="#ffae5c" fill-opacity="0.34" filter="url(#g)"/><circle cx="133.0" cy="86.3" r="2.3" fill="#5ea0ff" fill-opacity="0.39" filter="url(#g)"/><circle cx="263.6" cy="72.0" r="1.5" fill="#ffae5c" fill-opacity="0.37" filter="url(#g)"/><circle cx="327.4" cy="83.3" r="2.3" fill="#5ea0ff" fill-opacity="0.39" filter="url(#g)"/><circle cx="373.4" cy="73.8" r="2.0" fill="#ffae5c" fill-opacity="0.37" filter="url(#g)"/><circle cx="484.6" cy="70.0" r="2.4" fill="#ffae5c" fill-opacity="0.37" filter="url(#g)"/><circle cx="572.7" cy="55.2" r="2.7" fill="#ffae5c" fill-opacity="0.34" filter="url(#g)"/><circle cx="647.0" cy="63.6" r="2.1" fill="#5ea0ff" fill-opacity="0.36" filter="url(#g)"/><circle cx="-5.9" cy="123.3" r="1.4" fill="#5ea0ff" fill-opacity="0.46" filter="url(#g)"/><circle cx="67.8" cy="127.9" r="2.4" fill="#5ea0ff" fill-opacity="0.46" filter="url(#g)"/><circle cx="178.0" cy="134.6" r="3.2" fill="#5ea0ff" fill-opacity="0.47" filter="url(#g)"/><circle cx="230.8" cy="153.3" r="2.0" fill="#ffae5c" fill-opacity="0.51" filter="url(#g)"/><circle cx="308.1" cy="148.6" r="1.5" fill="#5ea0ff" fill-opacity="0.50" filter="url(#g)"/><circle cx="372.7" cy="127.9" r="1.4" fill="#ffae5c" fill-opacity="0.46" filter="url(#g)"/><circle cx="503.8" cy="144.0" r="1.2" fill="#ffae5c" fill-opacity="0.49" filter="url(#g)"/><circle cx="539.9" cy="123.5" r="2.6" fill="#5ea0ff" fill-opacity="0.46" filter="url(#g)"/><circle cx="660.5" cy="161.8" r="1.8" fill="#ffae5c" fill-opacity="0.52" filter="url(#g)"/><circle cx="-11.6" cy="222.0" r="2.6" fill="#5ea0ff" fill-opacity="0.62" filter="url(#g)"/><circle cx="93.5" cy="202.8" r="1.5" fill="#ffae5c" fill-opacity="0.59" filter="url(#g)"/><circle cx="174.6" cy="206.5" r="2.8" fill="#ffae5c" fill-opacity="0.59" filter="url(#g)"/><circle cx="228.5" cy="217.7" r="3.2" fill="#5ea0ff" fill-opacity="0.61" filter="url(#g)"/><circle cx="299.6" cy="206.9" r="2.6" fill="#ffae5c" fill-opacity="0.59" filter="url(#g)"/><circle cx="412.5" cy="217.2" r="2.7" fill="#5ea0ff" fill-opacity="0.61" filter="url(#g)"/><circle cx="471.5" cy="202.3" r="2.2" fill="#5ea0ff" fill-opacity="0.59" filter="url(#g)"/><circle cx="534.6" cy="210.4" r="1.9" fill="#5ea0ff" fill-opacity="0.60" filter="url(#g)"/><circle cx="620.5" cy="213.2" r="2.2" fill="#ffae5c" fill-opacity="0.61" filter="url(#g)"/><circle cx="7.4" cy="287.0" r="3.1" fill="#ffae5c" fill-opacity="0.73" filter="url(#g)"/><circle cx="104.3" cy="309.5" r="1.6" fill="#ffae5c" fill-opacity="0.77" filter="url(#g)"/><circle cx="181.7" cy="272.4" r="1.9" fill="#ffae5c" fill-opacity="0.70" filter="url(#g)"/><circle cx="222.8" cy="294.2" r="3.1" fill="#ffae5c" fill-opacity="0.74" filter="url(#g)"/><circle cx="332.3" cy="269.0" r="1.8" fill="#5ea0ff" fill-opacity="0.70" filter="url(#g)"/><circle cx="409.6" cy="305.6" r="2.6" fill="#ffae5c" fill-opacity="0.76" filter="url(#g)"/><circle cx="474.6" cy="282.1" r="1.4" fill="#ffae5c" fill-opacity="0.72" filter="url(#g)"/><circle cx="539.3" cy="271.5" r="2.6" fill="#ffae5c" fill-opacity="0.70" filter="url(#g)"/><circle cx="626.0" cy="281.6" r="2.6" fill="#5ea0ff" fill-opacity="0.72" filter="url(#g)"/><circle cx="-21.1" cy="377.4" r="1.6" fill="#ffae5c" fill-opacity="0.88" filter="url(#g)"/><circle cx="60.2" cy="347.5" r="1.9" fill="#ffae5c" fill-opacity="0.83" filter="url(#g)"/><circle cx="185.8" cy="366.5" r="2.8" fill="#ffae5c" fill-opacity="0.86" filter="url(#g)"/><circle cx="257.0" cy="349.8" r="3.0" fill="#5ea0ff" fill-opacity="0.83" filter="url(#g)"/><circle cx="324.4" cy="343.7" r="1.9" fill="#5ea0ff" fill-opacity="0.82" filter="url(#g)"/><circle cx="385.9" cy="342.5" r="1.6" fill="#ffae5c" fill-opacity="0.82" filter="url(#g)"/><circle cx="460.6" cy="378.8" r="2.6" fill="#5ea0ff" fill-opacity="0.88" filter="url(#g)"/><circle cx="575.6" cy="354.9" r="2.5" fill="#ffae5c" fill-opacity="0.84" filter="url(#g)"/><circle cx="666.2" cy="370.7" r="2.0" fill="#ffae5c" fill-opacity="0.87" filter="url(#g)"/></g>
</svg>